<mxfile host="app.diagrams.net" modified="2024-01-29T04:01:27.740Z" agent="Mozilla/5.0 (Windows NT 10.0; Win64; x64) AppleWebKit/537.36 (KHTML, like Gecko) Chrome/120.0.0.0 Safari/537.36 Edg/120.0.0.0" version="23.0.2" etag="JhwpliFLQ4Cv6C9Re1nj" type="github">
  <diagram name="페이지-1" id="w2jVJX1Bx0qLRJ-_xk6e">
    <mxGraphModel>
      <root>
        <mxCell id="0" />
        <mxCell id="1" parent="0" />
      </root>
    </mxGraphModel>
  </diagram>
</mxfile>
